<svg width="113" height="159" viewBox="0 0 113 159" fill="none" xmlns="http://www.w3.org/2000/svg">
<mask id="path-1-outside-1_610_18" maskUnits="userSpaceOnUse" x="13.9492" y="51" width="78" height="72" fill="black">
<rect fill="white" x="13.9492" y="51" width="78" height="72"/>
<path d="M35.1412 121.96C29.8932 121.96 25.7972 120.648 22.8532 118.024C19.9092 115.4 17.8612 111.528 16.7092 106.408C15.5572 101.288 14.9812 94.952 14.9812 87.4C14.9812 79.784 15.5572 73.416 16.7092 68.296C17.8612 63.176 19.9092 59.304 22.8532 56.68C25.7972 54.056 29.8932 52.744 35.1412 52.744C40.3892 52.744 44.4532 54.056 47.3332 56.68C50.2132 59.304 52.2292 63.176 53.3812 68.296C54.5972 73.416 55.2052 79.784 55.2052 87.4C55.2052 94.952 54.5972 101.288 53.3812 106.408C52.2292 111.528 50.2132 115.4 47.3332 118.024C44.4532 120.648 40.3892 121.96 35.1412 121.96ZM35.1412 111.016C37.3172 111.016 39.0132 110.344 40.2292 109C41.5092 107.592 42.4052 105.192 42.9172 101.8C43.4932 98.344 43.7812 93.544 43.7812 87.4C43.7812 81.256 43.4932 76.456 42.9172 73C42.4052 69.544 41.5092 67.144 40.2292 65.8C39.0132 64.392 37.3172 63.688 35.1412 63.688C32.9652 63.688 31.2372 64.392 29.9572 65.8C28.6772 67.144 27.7492 69.544 27.1732 73C26.6612 76.456 26.4052 81.256 26.4052 87.4C26.4052 93.544 26.6612 98.344 27.1732 101.8C27.7492 105.192 28.6772 107.592 29.9572 109C31.2372 110.344 32.9652 111.016 35.1412 111.016ZM85.0567 121C81.2167 121 79.2967 118.888 79.2967 114.664V68.392L73.4407 72.328C69.8567 74.696 67.0727 74.248 65.0887 70.984C64.0647 69.384 63.7447 67.88 64.1287 66.472C64.5767 65 65.6647 63.752 67.3927 62.728L78.3367 55.912C79.6167 55.08 80.8647 54.504 82.0807 54.184C83.2967 53.864 84.6727 53.704 86.2087 53.704C89.2167 53.704 90.7207 55.816 90.7207 60.04V114.664C90.7207 118.888 88.8327 121 85.0567 121Z"/>
</mask>
<path d="M35.1412 121.96C29.8932 121.96 25.7972 120.648 22.8532 118.024C19.9092 115.4 17.8612 111.528 16.7092 106.408C15.5572 101.288 14.9812 94.952 14.9812 87.4C14.9812 79.784 15.5572 73.416 16.7092 68.296C17.8612 63.176 19.9092 59.304 22.8532 56.68C25.7972 54.056 29.8932 52.744 35.1412 52.744C40.3892 52.744 44.4532 54.056 47.3332 56.68C50.2132 59.304 52.2292 63.176 53.3812 68.296C54.5972 73.416 55.2052 79.784 55.2052 87.4C55.2052 94.952 54.5972 101.288 53.3812 106.408C52.2292 111.528 50.2132 115.4 47.3332 118.024C44.4532 120.648 40.3892 121.96 35.1412 121.96ZM35.1412 111.016C37.3172 111.016 39.0132 110.344 40.2292 109C41.5092 107.592 42.4052 105.192 42.9172 101.8C43.4932 98.344 43.7812 93.544 43.7812 87.4C43.7812 81.256 43.4932 76.456 42.9172 73C42.4052 69.544 41.5092 67.144 40.2292 65.8C39.0132 64.392 37.3172 63.688 35.1412 63.688C32.9652 63.688 31.2372 64.392 29.9572 65.8C28.6772 67.144 27.7492 69.544 27.1732 73C26.6612 76.456 26.4052 81.256 26.4052 87.4C26.4052 93.544 26.6612 98.344 27.1732 101.8C27.7492 105.192 28.6772 107.592 29.9572 109C31.2372 110.344 32.9652 111.016 35.1412 111.016ZM85.0567 121C81.2167 121 79.2967 118.888 79.2967 114.664V68.392L73.4407 72.328C69.8567 74.696 67.0727 74.248 65.0887 70.984C64.0647 69.384 63.7447 67.88 64.1287 66.472C64.5767 65 65.6647 63.752 67.3927 62.728L78.3367 55.912C79.6167 55.08 80.8647 54.504 82.0807 54.184C83.2967 53.864 84.6727 53.704 86.2087 53.704C89.2167 53.704 90.7207 55.816 90.7207 60.04V114.664C90.7207 118.888 88.8327 121 85.0567 121Z" fill="#F8D010"/>
<path d="M22.8532 118.024L23.5186 117.277L23.5186 117.277L22.8532 118.024ZM16.7092 106.408L17.6848 106.188L17.6848 106.188L16.7092 106.408ZM16.7092 68.296L15.7336 68.0765L15.7336 68.0765L16.7092 68.296ZM22.8532 56.68L23.5186 57.4265L23.5186 57.4265L22.8532 56.68ZM47.3332 56.68L46.6597 57.4192L46.6597 57.4192L47.3332 56.68ZM53.3812 68.296L52.4055 68.5155L52.4083 68.5271L53.3812 68.296ZM53.3812 106.408L52.4082 106.177L52.4056 106.188L53.3812 106.408ZM47.3332 118.024L46.6597 117.285L46.6597 117.285L47.3332 118.024ZM40.2292 109L39.4893 108.327L39.4877 108.329L40.2292 109ZM42.9172 101.8L41.9308 101.636L41.9296 101.643L41.9284 101.651L42.9172 101.8ZM42.9172 73L41.928 73.1465L41.9293 73.1555L41.9308 73.1644L42.9172 73ZM40.2292 65.8L39.4724 66.4536L39.4883 66.472L39.5051 66.4897L40.2292 65.8ZM29.9572 65.8L30.6814 66.4897L30.6894 66.4813L30.6972 66.4727L29.9572 65.8ZM27.1732 73L26.1868 72.8356L26.1853 72.8445L26.184 72.8535L27.1732 73ZM27.1732 101.8L26.184 101.947L26.1856 101.957L26.1873 101.967L27.1732 101.8ZM29.9572 109L29.2173 109.673L29.2251 109.681L29.2331 109.69L29.9572 109ZM35.1412 120.96C30.0561 120.96 26.226 119.691 23.5186 117.277L22.1878 118.771C25.3684 121.605 29.7303 122.96 35.1412 122.96V120.96ZM23.5186 117.277C20.7747 114.832 18.806 111.171 17.6848 106.188L15.7336 106.628C16.9165 111.885 19.0437 115.968 22.1878 118.771L23.5186 117.277ZM17.6848 106.188C16.5544 101.164 15.9812 94.9074 15.9812 87.4H13.9812C13.9812 94.9966 14.56 101.412 15.7336 106.628L17.6848 106.188ZM15.9812 87.4C15.9812 79.8279 16.5545 73.5392 17.6848 68.5155L15.7336 68.0765C14.5599 73.2928 13.9812 79.7401 13.9812 87.4H15.9812ZM17.6848 68.5155C18.806 63.5327 20.7747 59.8721 23.5186 57.4265L22.1878 55.9335C19.0437 58.7359 16.9165 62.8193 15.7336 68.0765L17.6848 68.5155ZM23.5186 57.4265C26.226 55.0134 30.0561 53.744 35.1412 53.744V51.744C29.7303 51.744 25.3684 53.0986 22.1878 55.9335L23.5186 57.4265ZM35.1412 53.744C40.2278 53.744 44.0198 55.014 46.6597 57.4192L48.0067 55.9408C44.8866 53.098 40.5506 51.744 35.1412 51.744V53.744ZM46.6597 57.4192C49.3436 59.8645 51.2833 63.5275 52.4056 68.5155L54.3568 68.0765C53.1751 62.8245 51.0829 58.7435 48.0067 55.9408L46.6597 57.4192ZM52.4083 68.5271C53.6003 73.546 54.2052 79.8305 54.2052 87.4H56.2052C56.2052 79.7375 55.5942 73.286 54.3542 68.0649L52.4083 68.5271ZM54.2052 87.4C54.2052 94.9048 53.6004 101.158 52.4083 106.177L54.3542 106.639C55.594 101.418 56.2052 94.9992 56.2052 87.4H54.2052ZM52.4056 106.188C51.2833 111.177 49.3436 114.84 46.6597 117.285L48.0067 118.763C51.0829 115.96 53.1751 111.879 54.3568 106.628L52.4056 106.188ZM46.6597 117.285C44.0198 119.69 40.2278 120.96 35.1412 120.96V122.96C40.5506 122.96 44.8866 121.606 48.0067 118.763L46.6597 117.285ZM35.1412 112.016C37.5381 112.016 39.5274 111.266 40.9708 109.671L39.4877 108.329C38.499 109.422 37.0963 110.016 35.1412 110.016V112.016ZM40.9692 109.673C42.4514 108.042 43.3851 105.4 43.906 101.949L41.9284 101.651C41.4254 104.984 40.5671 107.142 39.4893 108.327L40.9692 109.673ZM43.9036 101.964C44.493 98.4283 44.7812 93.5646 44.7812 87.4H42.7812C42.7812 93.5234 42.4935 98.2597 41.9308 101.636L43.9036 101.964ZM44.7812 87.4C44.7812 81.2354 44.493 76.3717 43.9036 72.8356L41.9308 73.1644C42.4935 76.5403 42.7812 81.2766 42.7812 87.4H44.7812ZM43.9064 72.8535C43.387 69.3475 42.4546 66.6866 40.9534 65.1103L39.5051 66.4897C40.5639 67.6014 41.4234 69.7405 41.928 73.1465L43.9064 72.8535ZM40.986 65.1464C39.5472 63.4803 37.5534 62.688 35.1412 62.688V64.688C37.0811 64.688 38.4793 65.3037 39.4724 66.4536L40.986 65.1464ZM35.1412 62.688C32.7281 62.688 30.7149 63.48 29.2173 65.1273L30.6972 66.4727C31.7596 65.304 33.2023 64.688 35.1412 64.688V62.688ZM29.2331 65.1103C27.7385 66.6796 26.7709 69.3314 26.1868 72.8356L28.1596 73.1644C28.7276 69.7566 29.6159 67.6084 30.6814 66.4897L29.2331 65.1103ZM26.184 72.8535C25.6614 76.3811 25.4052 81.2378 25.4052 87.4H27.4052C27.4052 81.2742 27.661 76.5309 28.1624 73.1465L26.184 72.8535ZM25.4052 87.4C25.4052 93.5622 25.6614 98.4189 26.184 101.947L28.1624 101.653C27.661 98.2691 27.4052 93.5258 27.4052 87.4H25.4052ZM26.1873 101.967C26.773 105.416 27.7415 108.049 29.2173 109.673L30.6972 108.327C29.6129 107.135 28.7254 104.968 28.1591 101.633L26.1873 101.967ZM29.2331 109.69C30.7345 111.266 32.7428 112.016 35.1412 112.016V110.016C33.1876 110.016 31.74 109.422 30.6814 108.31L29.2331 109.69ZM79.2967 68.392H80.2967V66.515L78.7389 67.562L79.2967 68.392ZM73.4407 72.328L73.992 73.1624L73.9986 73.1579L73.4407 72.328ZM65.0887 70.984L65.9432 70.4646L65.9372 70.4547L65.931 70.4449L65.0887 70.984ZM64.1287 66.472L63.172 66.1808L63.1678 66.1948L63.164 66.2089L64.1287 66.472ZM67.3927 62.728L67.9025 63.5883L67.912 63.5827L67.9214 63.5768L67.3927 62.728ZM78.3367 55.912L78.8654 56.7608L78.8736 56.7557L78.8817 56.7504L78.3367 55.912ZM82.0807 54.184L81.8262 53.2169L81.8262 53.2169L82.0807 54.184ZM85.0567 120C83.3167 120 82.1881 119.526 81.4767 118.743C80.7488 117.943 80.2967 116.644 80.2967 114.664H78.2967C78.2967 116.908 78.8046 118.777 79.9968 120.089C81.2054 121.418 82.9567 122 85.0567 122V120ZM80.2967 114.664V68.392H78.2967V114.664H80.2967ZM78.7389 67.562L72.8829 71.498L73.9986 73.1579L79.8546 69.2219L78.7389 67.562ZM72.8895 71.4937C71.2004 72.6096 69.866 72.9484 68.8236 72.7807C67.8138 72.6182 66.84 71.9398 65.9432 70.4646L64.2342 71.5034C65.3215 73.2921 66.7316 74.4698 68.5058 74.7553C70.2474 75.0356 72.097 74.4144 73.992 73.1623L72.8895 71.4937ZM65.931 70.4449C65.0107 69.007 64.8047 67.794 65.0935 66.7351L63.164 66.2089C62.6848 67.966 63.1187 69.761 64.2464 71.5231L65.931 70.4449ZM65.0854 66.7632C65.4407 65.5956 66.3219 64.5249 67.9025 63.5883L66.8829 61.8677C65.0075 62.9791 63.7127 64.4044 63.172 66.1808L65.0854 66.7632ZM67.9214 63.5768L78.8654 56.7608L77.8081 55.0632L66.8641 61.8792L67.9214 63.5768ZM78.8817 56.7504C80.0908 55.9645 81.2416 55.4389 82.3352 55.1511L81.8262 53.2169C80.4878 53.5691 79.1426 54.1955 77.7917 55.0736L78.8817 56.7504ZM82.3352 55.1511C83.4522 54.8571 84.7404 54.704 86.2087 54.704V52.704C84.605 52.704 83.1412 52.8709 81.8262 53.2169L82.3352 55.1511ZM86.2087 54.704C87.4487 54.704 88.2458 55.1205 88.7782 55.8681C89.355 56.6781 89.7207 58.0164 89.7207 60.04H91.7207C91.7207 57.8396 91.3344 56.0099 90.4073 54.7079C89.4357 53.3435 87.9768 52.704 86.2087 52.704V54.704ZM89.7207 60.04V114.664H91.7207V60.04H89.7207ZM89.7207 114.664C89.7207 116.648 89.2749 117.949 88.5592 118.75C87.8625 119.529 86.7598 120 85.0567 120V122C87.1297 122 88.8589 121.415 90.0503 120.082C91.2225 118.771 91.7207 116.904 91.7207 114.664H89.7207Z" fill="#2E2D2C" mask="url(#path-1-outside-1_610_18)"/>
</svg>
