<svg width="118" height="159" viewBox="0 0 118 159" fill="none" xmlns="http://www.w3.org/2000/svg">
<mask id="path-1-outside-1_610_20" maskUnits="userSpaceOnUse" x="13" y="51" width="88" height="72" fill="black">
<rect fill="white" x="13" y="51" width="88" height="72"/>
<path d="M34.192 121.96C28.944 121.96 24.848 120.648 21.904 118.024C18.96 115.4 16.912 111.528 15.76 106.408C14.608 101.288 14.032 94.952 14.032 87.4C14.032 79.784 14.608 73.416 15.76 68.296C16.912 63.176 18.96 59.304 21.904 56.68C24.848 54.056 28.944 52.744 34.192 52.744C39.44 52.744 43.504 54.056 46.384 56.68C49.264 59.304 51.28 63.176 52.432 68.296C53.648 73.416 54.256 79.784 54.256 87.4C54.256 94.952 53.648 101.288 52.432 106.408C51.28 111.528 49.264 115.4 46.384 118.024C43.504 120.648 39.44 121.96 34.192 121.96ZM34.192 111.016C36.368 111.016 38.064 110.344 39.28 109C40.56 107.592 41.456 105.192 41.968 101.8C42.544 98.344 42.832 93.544 42.832 87.4C42.832 81.256 42.544 76.456 41.968 73C41.456 69.544 40.56 67.144 39.28 65.8C38.064 64.392 36.368 63.688 34.192 63.688C32.016 63.688 30.288 64.392 29.008 65.8C27.728 67.144 26.8 69.544 26.224 73C25.712 76.456 25.456 81.256 25.456 87.4C25.456 93.544 25.712 98.344 26.224 101.8C26.8 105.192 27.728 107.592 29.008 109C30.288 110.344 32.016 111.016 34.192 111.016ZM66.9235 121C62.6995 121 60.5875 119.848 60.5875 117.544C60.5875 114.536 61.0675 111.592 62.0275 108.712C62.9875 105.768 64.5875 102.728 66.8275 99.592C69.1315 96.456 72.2355 93.032 76.1395 89.32C78.0595 87.464 79.8835 85.608 81.6115 83.752C83.3395 81.896 84.7475 80.072 85.8355 78.28C86.9235 76.424 87.4995 74.696 87.5635 73.096C87.6275 70.088 86.9555 67.848 85.5475 66.376C84.2035 64.904 82.2195 64.168 79.5955 64.168C76.3315 64.168 74.1555 65.736 73.0675 68.872C72.4275 70.792 71.6595 72.264 70.7635 73.288C69.8675 74.312 68.4915 74.824 66.6355 74.824C64.8435 74.824 63.4355 74.248 62.4115 73.096C61.3875 71.88 61.0995 70.216 61.5475 68.104C62.6355 63.368 64.7795 59.72 67.9795 57.16C71.1795 54.536 75.0515 53.224 79.5955 53.224C83.3075 53.224 86.6355 54.024 89.5795 55.624C92.5875 57.16 94.9235 59.432 96.5875 62.44C98.3155 65.384 99.1155 69.032 98.9875 73.384C98.9235 76.456 98.2195 79.24 96.8755 81.736C95.5955 84.232 93.8355 86.696 91.5955 89.128C89.4195 91.496 86.8915 94.056 84.0115 96.808C81.2595 99.56 78.7955 102.152 76.6195 104.584C74.5075 107.016 73.2595 109 72.8755 110.536H91.3075C95.5315 110.536 97.6435 112.264 97.6435 115.72C97.6435 119.24 95.5315 121 91.3075 121H66.9235Z"/>
</mask>
<path d="M34.192 121.96C28.944 121.96 24.848 120.648 21.904 118.024C18.96 115.4 16.912 111.528 15.76 106.408C14.608 101.288 14.032 94.952 14.032 87.4C14.032 79.784 14.608 73.416 15.76 68.296C16.912 63.176 18.96 59.304 21.904 56.68C24.848 54.056 28.944 52.744 34.192 52.744C39.44 52.744 43.504 54.056 46.384 56.68C49.264 59.304 51.28 63.176 52.432 68.296C53.648 73.416 54.256 79.784 54.256 87.4C54.256 94.952 53.648 101.288 52.432 106.408C51.28 111.528 49.264 115.4 46.384 118.024C43.504 120.648 39.44 121.96 34.192 121.96ZM34.192 111.016C36.368 111.016 38.064 110.344 39.28 109C40.56 107.592 41.456 105.192 41.968 101.8C42.544 98.344 42.832 93.544 42.832 87.4C42.832 81.256 42.544 76.456 41.968 73C41.456 69.544 40.56 67.144 39.28 65.8C38.064 64.392 36.368 63.688 34.192 63.688C32.016 63.688 30.288 64.392 29.008 65.8C27.728 67.144 26.8 69.544 26.224 73C25.712 76.456 25.456 81.256 25.456 87.4C25.456 93.544 25.712 98.344 26.224 101.8C26.8 105.192 27.728 107.592 29.008 109C30.288 110.344 32.016 111.016 34.192 111.016ZM66.9235 121C62.6995 121 60.5875 119.848 60.5875 117.544C60.5875 114.536 61.0675 111.592 62.0275 108.712C62.9875 105.768 64.5875 102.728 66.8275 99.592C69.1315 96.456 72.2355 93.032 76.1395 89.32C78.0595 87.464 79.8835 85.608 81.6115 83.752C83.3395 81.896 84.7475 80.072 85.8355 78.28C86.9235 76.424 87.4995 74.696 87.5635 73.096C87.6275 70.088 86.9555 67.848 85.5475 66.376C84.2035 64.904 82.2195 64.168 79.5955 64.168C76.3315 64.168 74.1555 65.736 73.0675 68.872C72.4275 70.792 71.6595 72.264 70.7635 73.288C69.8675 74.312 68.4915 74.824 66.6355 74.824C64.8435 74.824 63.4355 74.248 62.4115 73.096C61.3875 71.88 61.0995 70.216 61.5475 68.104C62.6355 63.368 64.7795 59.72 67.9795 57.16C71.1795 54.536 75.0515 53.224 79.5955 53.224C83.3075 53.224 86.6355 54.024 89.5795 55.624C92.5875 57.16 94.9235 59.432 96.5875 62.44C98.3155 65.384 99.1155 69.032 98.9875 73.384C98.9235 76.456 98.2195 79.24 96.8755 81.736C95.5955 84.232 93.8355 86.696 91.5955 89.128C89.4195 91.496 86.8915 94.056 84.0115 96.808C81.2595 99.56 78.7955 102.152 76.6195 104.584C74.5075 107.016 73.2595 109 72.8755 110.536H91.3075C95.5315 110.536 97.6435 112.264 97.6435 115.72C97.6435 119.24 95.5315 121 91.3075 121H66.9235Z" fill="#F8D010"/>
<path d="M21.904 118.024L22.5694 117.277L22.5694 117.277L21.904 118.024ZM15.76 106.408L16.7356 106.188L16.7356 106.188L15.76 106.408ZM15.76 68.296L14.7844 68.0765L14.7844 68.0765L15.76 68.296ZM21.904 56.68L22.5694 57.4265L22.5694 57.4265L21.904 56.68ZM46.384 56.68L45.7105 57.4192L45.7105 57.4192L46.384 56.68ZM52.432 68.296L51.4563 68.5155L51.4591 68.5271L52.432 68.296ZM52.432 106.408L51.459 106.177L51.4564 106.188L52.432 106.408ZM46.384 118.024L45.7105 117.285L45.7105 117.285L46.384 118.024ZM39.28 109L38.5401 108.327L38.5385 108.329L39.28 109ZM41.968 101.8L40.9816 101.636L40.9803 101.643L40.9792 101.651L41.968 101.8ZM41.968 73L40.9788 73.1465L40.9801 73.1555L40.9816 73.1644L41.968 73ZM39.28 65.8L38.5232 66.4536L38.5391 66.472L38.5559 66.4897L39.28 65.8ZM29.008 65.8L29.7321 66.4897L29.7401 66.4813L29.7479 66.4727L29.008 65.8ZM26.224 73L25.2376 72.8356L25.2361 72.8445L25.2348 72.8535L26.224 73ZM26.224 101.8L25.2348 101.947L25.2363 101.957L25.2381 101.967L26.224 101.8ZM29.008 109L28.2681 109.673L28.2759 109.681L28.2839 109.69L29.008 109ZM34.192 120.96C29.1069 120.96 25.2768 119.691 22.5694 117.277L21.2386 118.771C24.4192 121.605 28.7811 122.96 34.192 122.96V120.96ZM22.5694 117.277C19.8255 114.832 17.8568 111.171 16.7356 106.188L14.7844 106.628C15.9672 111.885 18.0945 115.968 21.2386 118.771L22.5694 117.277ZM16.7356 106.188C15.6052 101.164 15.032 94.9074 15.032 87.4H13.032C13.032 94.9966 13.6108 101.412 14.7844 106.628L16.7356 106.188ZM15.032 87.4C15.032 79.8279 15.6053 73.5392 16.7356 68.5155L14.7844 68.0765C13.6107 73.2928 13.032 79.7401 13.032 87.4H15.032ZM16.7356 68.5155C17.8568 63.5327 19.8255 59.8721 22.5694 57.4265L21.2386 55.9335C18.0945 58.7359 15.9672 62.8193 14.7844 68.0765L16.7356 68.5155ZM22.5694 57.4265C25.2768 55.0134 29.1069 53.744 34.192 53.744V51.744C28.7811 51.744 24.4192 53.0986 21.2386 55.9335L22.5694 57.4265ZM34.192 53.744C39.2786 53.744 43.0706 55.014 45.7105 57.4192L47.0575 55.9408C43.9374 53.098 39.6014 51.744 34.192 51.744V53.744ZM45.7105 57.4192C48.3944 59.8645 50.3341 63.5275 51.4564 68.5155L53.4076 68.0765C52.2259 62.8245 50.1337 58.7435 47.0575 55.9408L45.7105 57.4192ZM51.4591 68.5271C52.6511 73.546 53.256 79.8305 53.256 87.4H55.256C55.256 79.7375 54.645 73.286 53.4049 68.0649L51.4591 68.5271ZM53.256 87.4C53.256 94.9048 52.6512 101.158 51.4591 106.177L53.4049 106.639C54.6448 101.418 55.256 94.9992 55.256 87.4H53.256ZM51.4564 106.188C50.3341 111.177 48.3944 114.84 45.7105 117.285L47.0575 118.763C50.1337 115.96 52.2259 111.879 53.4076 106.628L51.4564 106.188ZM45.7105 117.285C43.0706 119.69 39.2786 120.96 34.192 120.96V122.96C39.6014 122.96 43.9374 121.606 47.0575 118.763L45.7105 117.285ZM34.192 112.016C36.5889 112.016 38.5782 111.266 40.0215 109.671L38.5385 108.329C37.5498 109.422 36.1471 110.016 34.192 110.016V112.016ZM40.0199 109.673C41.5021 108.042 42.4359 105.4 42.9568 101.949L40.9792 101.651C40.4761 104.984 39.6179 107.142 38.5401 108.327L40.0199 109.673ZM42.9544 101.964C43.5437 98.4283 43.832 93.5646 43.832 87.4H41.832C41.832 93.5234 41.5443 98.2597 40.9816 101.636L42.9544 101.964ZM43.832 87.4C43.832 81.2354 43.5437 76.3717 42.9544 72.8356L40.9816 73.1644C41.5443 76.5403 41.832 81.2766 41.832 87.4H43.832ZM42.9572 72.8535C42.4378 69.3475 41.5053 66.6866 40.0041 65.1103L38.5559 66.4897C39.6147 67.6014 40.4742 69.7405 40.9788 73.1465L42.9572 72.8535ZM40.0368 65.1464C38.5979 63.4803 36.6041 62.688 34.192 62.688V64.688C36.1319 64.688 37.5301 65.3037 38.5232 66.4536L40.0368 65.1464ZM34.192 62.688C31.7789 62.688 29.7657 63.48 28.2681 65.1273L29.7479 66.4727C30.8104 65.304 32.2531 64.688 34.192 64.688V62.688ZM28.2839 65.1103C26.7893 66.6796 25.8216 69.3314 25.2376 72.8356L27.2104 73.1644C27.7784 69.7566 28.6667 67.6084 29.7321 66.4897L28.2839 65.1103ZM25.2348 72.8535C24.7122 76.3811 24.456 81.2378 24.456 87.4H26.456C26.456 81.2742 26.7118 76.5309 27.2132 73.1465L25.2348 72.8535ZM24.456 87.4C24.456 93.5622 24.7122 98.4189 25.2348 101.947L27.2132 101.653C26.7118 98.2691 26.456 93.5258 26.456 87.4H24.456ZM25.2381 101.967C25.8238 105.416 26.7923 108.049 28.2681 109.673L29.7479 108.327C28.6637 107.135 27.7762 104.968 27.2099 101.633L25.2381 101.967ZM28.2839 109.69C29.7853 111.266 31.7936 112.016 34.192 112.016V110.016C32.2384 110.016 30.7907 109.422 29.7321 108.31L28.2839 109.69ZM62.0275 108.712L62.9762 109.028L62.9782 109.022L62.0275 108.712ZM66.8275 99.592L66.0215 98.9999L66.0138 99.0108L66.8275 99.592ZM76.1395 89.32L76.8286 90.0447L76.8345 90.039L76.1395 89.32ZM81.6115 83.752L82.3434 84.4334L82.3434 84.4334L81.6115 83.752ZM85.8355 78.28L86.6903 78.799L86.6943 78.7924L86.6982 78.7857L85.8355 78.28ZM87.5635 73.096L88.5627 73.136L88.5631 73.1266L88.5633 73.1173L87.5635 73.096ZM85.5475 66.376L84.809 67.0503L84.8168 67.0588L84.8249 67.0672L85.5475 66.376ZM73.0675 68.872L72.1227 68.5442L72.1188 68.5558L73.0675 68.872ZM70.7635 73.288L71.5161 73.9465L71.5161 73.9465L70.7635 73.288ZM62.4115 73.096L61.6466 73.7401L61.6552 73.7504L61.6641 73.7604L62.4115 73.096ZM61.5475 68.104L60.5729 67.8801L60.571 67.8883L60.5693 67.8965L61.5475 68.104ZM67.9795 57.16L68.6042 57.9409L68.6136 57.9333L67.9795 57.16ZM89.5795 55.624L89.102 56.5026L89.1133 56.5088L89.1247 56.5146L89.5795 55.624ZM96.5875 62.44L95.7125 62.9241L95.7186 62.9352L95.7251 62.9462L96.5875 62.44ZM98.9875 73.384L97.9879 73.3546L97.9877 73.3632L98.9875 73.384ZM96.8755 81.736L95.995 81.2619L95.9903 81.2707L95.9857 81.2797L96.8755 81.736ZM91.5955 89.128L90.86 88.4505L90.8592 88.4514L91.5955 89.128ZM84.0115 96.808L83.3206 96.085L83.3124 96.0929L83.3044 96.1009L84.0115 96.808ZM76.6195 104.584L75.8743 103.917L75.8693 103.923L75.8645 103.928L76.6195 104.584ZM72.8755 110.536L71.9054 110.293L71.5947 111.536H72.8755V110.536ZM66.9235 120C64.8697 120 63.4867 119.714 62.6504 119.258C62.2472 119.038 61.9935 118.791 61.8368 118.535C61.6814 118.28 61.5875 117.962 61.5875 117.544H59.5875C59.5875 118.278 59.7576 118.968 60.1302 119.577C60.5015 120.185 61.0398 120.658 61.6926 121.014C62.9683 121.71 64.7533 122 66.9235 122V120ZM61.5875 117.544C61.5875 114.644 62.0499 111.807 62.9762 109.028L61.0788 108.396C60.0851 111.377 59.5875 114.428 59.5875 117.544H61.5875ZM62.9782 109.022C63.9 106.195 65.4466 103.246 67.6412 100.173L66.0138 99.0108C63.7284 102.21 62.075 105.341 61.0768 108.402L62.9782 109.022ZM67.6334 100.184C69.892 97.1098 72.9524 93.7303 76.8286 90.0447L75.4504 88.5953C71.5186 92.3337 68.371 95.8022 66.0216 98.9999L67.6334 100.184ZM76.8345 90.039C78.7665 88.1714 80.6028 86.3029 82.3434 84.4334L80.8796 83.0706C79.1642 84.9131 77.3525 86.7566 75.4445 88.601L76.8345 90.039ZM82.3434 84.4334C84.1085 82.5376 85.5605 80.6598 86.6903 78.799L84.9807 77.761C83.9345 79.4842 82.5705 81.2544 80.8796 83.0706L82.3434 84.4334ZM86.6982 78.7857C87.8419 76.8347 88.4903 74.9467 88.5627 73.136L86.5643 73.056C86.5087 74.4453 86.0051 76.0133 84.9728 77.7743L86.6982 78.7857ZM88.5633 73.1173C88.6302 69.97 87.9328 67.423 86.2701 65.6848L84.8249 67.0672C85.9782 68.273 86.6248 70.206 86.5637 73.0747L88.5633 73.1173ZM86.286 65.7017C84.6975 63.9619 82.4069 63.168 79.5955 63.168V65.168C82.0321 65.168 83.7095 65.8461 84.809 67.0503L86.286 65.7017ZM79.5955 63.168C77.8001 63.168 76.2233 63.6014 74.9309 64.5327C73.6399 65.463 72.718 66.8285 72.1227 68.5442L74.0123 69.1998C74.505 67.7795 75.2151 66.793 76.1001 66.1553C76.9837 65.5186 78.1269 65.168 79.5955 65.168V63.168ZM72.1188 68.5558C71.5022 70.4056 70.7877 71.7418 70.0109 72.6295L71.5161 73.9465C72.5313 72.7862 73.3528 71.1784 74.0162 69.1882L72.1188 68.5558ZM70.0109 72.6295C69.3669 73.3656 68.3131 73.824 66.6355 73.824V75.824C68.67 75.824 70.3681 75.2584 71.5161 73.9465L70.0109 72.6295ZM66.6355 73.824C65.078 73.824 63.9616 73.3347 63.1589 72.4316L61.6641 73.7604C62.9094 75.1613 64.609 75.824 66.6355 75.824V73.824ZM63.1764 72.4519C62.4164 71.5493 62.1172 70.2375 62.5257 68.3115L60.5693 67.8965C60.0818 70.1945 60.3586 72.2107 61.6466 73.7401L63.1764 72.4519ZM62.5221 68.3279C63.5694 63.7693 65.6115 60.335 68.6042 57.9409L67.3548 56.3791C63.9475 59.105 61.7016 62.9667 60.5729 67.8801L62.5221 68.3279ZM68.6136 57.9333C71.6169 55.4705 75.2585 54.224 79.5955 54.224V52.224C74.8445 52.224 70.7421 53.6015 67.3454 56.3867L68.6136 57.9333ZM79.5955 54.224C83.159 54.224 86.3199 54.9906 89.102 56.5026L90.057 54.7454C86.9511 53.0574 83.456 52.224 79.5955 52.224V54.224ZM89.1247 56.5146C91.9519 57.9583 94.1431 60.0871 95.7125 62.9241L97.4625 61.9559C95.7039 58.7769 93.2231 56.3617 90.0343 54.7334L89.1247 56.5146ZM95.7251 62.9462C97.335 65.689 98.1119 69.1393 97.9879 73.3546L99.9871 73.4134C100.119 68.9247 99.296 65.079 97.4499 61.9338L95.7251 62.9462ZM97.9877 73.3632C97.9267 76.2903 97.2577 78.9169 95.995 81.2619L97.756 82.2101C99.1813 79.5631 99.9203 76.6217 99.9873 73.4048L97.9877 73.3632ZM95.9857 81.2797C94.7535 83.6825 93.0494 86.0734 90.86 88.4505L92.331 89.8055C94.6216 87.3186 96.4375 84.7815 97.7653 82.1923L95.9857 81.2797ZM90.8592 88.4514C88.7008 90.8002 86.1885 93.3446 83.3206 96.085L84.7024 97.531C87.5945 94.7674 90.1382 92.1918 92.3318 89.8046L90.8592 88.4514ZM83.3044 96.1009C80.5417 98.8636 78.0647 101.469 75.8743 103.917L77.3647 105.251C79.5263 102.835 81.9773 100.256 84.7186 97.5151L83.3044 96.1009ZM75.8645 103.928C73.7348 106.381 72.35 108.515 71.9054 110.293L73.8456 110.779C74.169 109.485 75.2802 107.651 77.3745 105.24L75.8645 103.928ZM72.8755 111.536H91.3075V109.536H72.8755V111.536ZM91.3075 111.536C93.3087 111.536 94.6238 111.949 95.4263 112.606C96.1903 113.231 96.6435 114.205 96.6435 115.72H98.6435C98.6435 113.779 98.0407 112.161 96.6927 111.058C95.3832 109.987 93.5304 109.536 91.3075 109.536V111.536ZM96.6435 115.72C96.6435 117.273 96.1863 118.273 95.4193 118.912C94.6174 119.58 93.3053 120 91.3075 120V122C93.5337 122 95.3896 121.54 96.6997 120.448C98.0447 119.327 98.6435 117.687 98.6435 115.72H96.6435ZM91.3075 120H66.9235V122H91.3075V120Z" fill="#2E2D2C" mask="url(#path-1-outside-1_610_20)"/>
</svg>
