<svg width="119" height="159" viewBox="0 0 119 159" fill="none" xmlns="http://www.w3.org/2000/svg">
<mask id="path-1-outside-1_610_21" maskUnits="userSpaceOnUse" x="13" y="51" width="89" height="72" fill="black">
<rect fill="white" x="13" y="51" width="89" height="72"/>
<path d="M34.192 121.96C28.944 121.96 24.848 120.648 21.904 118.024C18.96 115.4 16.912 111.528 15.76 106.408C14.608 101.288 14.032 94.952 14.032 87.4C14.032 79.784 14.608 73.416 15.76 68.296C16.912 63.176 18.96 59.304 21.904 56.68C24.848 54.056 28.944 52.744 34.192 52.744C39.44 52.744 43.504 54.056 46.384 56.68C49.264 59.304 51.28 63.176 52.432 68.296C53.648 73.416 54.256 79.784 54.256 87.4C54.256 94.952 53.648 101.288 52.432 106.408C51.28 111.528 49.264 115.4 46.384 118.024C43.504 120.648 39.44 121.96 34.192 121.96ZM34.192 111.016C36.368 111.016 38.064 110.344 39.28 109C40.56 107.592 41.456 105.192 41.968 101.8C42.544 98.344 42.832 93.544 42.832 87.4C42.832 81.256 42.544 76.456 41.968 73C41.456 69.544 40.56 67.144 39.28 65.8C38.064 64.392 36.368 63.688 34.192 63.688C32.016 63.688 30.288 64.392 29.008 65.8C27.728 67.144 26.8 69.544 26.224 73C25.712 76.456 25.456 81.256 25.456 87.4C25.456 93.544 25.712 98.344 26.224 101.8C26.8 105.192 27.728 107.592 29.008 109C30.288 110.344 32.016 111.016 34.192 111.016ZM79.0195 121.96C71.9155 121.96 66.4755 119.272 62.6995 113.896C61.4835 112.04 61.1635 110.408 61.7395 109C62.3155 107.592 63.4355 106.6 65.0995 106.024C66.8915 105.448 68.3635 105.48 69.5155 106.12C70.6675 106.696 71.9155 107.656 73.2595 109C73.9635 109.576 74.7315 110.056 75.5635 110.44C76.4595 110.824 77.5155 111.016 78.7315 111.016C81.6755 111.016 84.0115 110.312 85.7395 108.904C87.5315 107.496 88.4275 105 88.4275 101.416C88.4275 98.28 87.5635 95.784 85.8355 93.928C84.1715 92.008 81.6755 91.048 78.3475 91.048C74.8275 91.048 73.0675 89.288 73.0675 85.768C73.0675 82.312 74.8275 80.584 78.3475 80.584C81.3555 80.584 83.4995 79.72 84.7795 77.992C86.1235 76.264 86.7955 74.12 86.7955 71.56C86.7955 68.552 85.9635 66.504 84.2995 65.416C82.6355 64.264 80.7795 63.688 78.7315 63.688C77.7715 63.688 76.9075 63.88 76.1395 64.264C75.3715 64.648 74.6675 65.128 74.0275 65.704C72.6835 67.112 71.4035 68.104 70.1875 68.68C69.0355 69.256 67.5955 69.192 65.8675 68.488C64.2675 67.784 63.2115 66.728 62.6995 65.32C62.2515 63.848 62.6675 62.248 63.9475 60.52C67.8515 55.336 72.8755 52.744 79.0195 52.744C82.9875 52.744 86.4435 53.512 89.3875 55.048C92.3315 56.584 94.6355 58.728 96.2995 61.48C97.9635 64.232 98.7955 67.432 98.7955 71.08C98.7955 74.344 97.9315 77.288 96.2035 79.912C94.4755 82.472 92.2995 84.36 89.6755 85.576C92.8115 86.792 95.3715 88.872 97.3555 91.816C99.3395 94.76 100.332 98.12 100.332 101.896C100.332 108.104 98.4115 113 94.5715 116.584C90.7955 120.168 85.6115 121.96 79.0195 121.96Z"/>
</mask>
<path d="M34.192 121.96C28.944 121.96 24.848 120.648 21.904 118.024C18.96 115.4 16.912 111.528 15.76 106.408C14.608 101.288 14.032 94.952 14.032 87.4C14.032 79.784 14.608 73.416 15.76 68.296C16.912 63.176 18.96 59.304 21.904 56.68C24.848 54.056 28.944 52.744 34.192 52.744C39.44 52.744 43.504 54.056 46.384 56.68C49.264 59.304 51.28 63.176 52.432 68.296C53.648 73.416 54.256 79.784 54.256 87.4C54.256 94.952 53.648 101.288 52.432 106.408C51.28 111.528 49.264 115.4 46.384 118.024C43.504 120.648 39.44 121.96 34.192 121.96ZM34.192 111.016C36.368 111.016 38.064 110.344 39.28 109C40.56 107.592 41.456 105.192 41.968 101.8C42.544 98.344 42.832 93.544 42.832 87.4C42.832 81.256 42.544 76.456 41.968 73C41.456 69.544 40.56 67.144 39.28 65.8C38.064 64.392 36.368 63.688 34.192 63.688C32.016 63.688 30.288 64.392 29.008 65.8C27.728 67.144 26.8 69.544 26.224 73C25.712 76.456 25.456 81.256 25.456 87.4C25.456 93.544 25.712 98.344 26.224 101.8C26.8 105.192 27.728 107.592 29.008 109C30.288 110.344 32.016 111.016 34.192 111.016ZM79.0195 121.96C71.9155 121.96 66.4755 119.272 62.6995 113.896C61.4835 112.04 61.1635 110.408 61.7395 109C62.3155 107.592 63.4355 106.6 65.0995 106.024C66.8915 105.448 68.3635 105.48 69.5155 106.12C70.6675 106.696 71.9155 107.656 73.2595 109C73.9635 109.576 74.7315 110.056 75.5635 110.44C76.4595 110.824 77.5155 111.016 78.7315 111.016C81.6755 111.016 84.0115 110.312 85.7395 108.904C87.5315 107.496 88.4275 105 88.4275 101.416C88.4275 98.28 87.5635 95.784 85.8355 93.928C84.1715 92.008 81.6755 91.048 78.3475 91.048C74.8275 91.048 73.0675 89.288 73.0675 85.768C73.0675 82.312 74.8275 80.584 78.3475 80.584C81.3555 80.584 83.4995 79.72 84.7795 77.992C86.1235 76.264 86.7955 74.12 86.7955 71.56C86.7955 68.552 85.9635 66.504 84.2995 65.416C82.6355 64.264 80.7795 63.688 78.7315 63.688C77.7715 63.688 76.9075 63.88 76.1395 64.264C75.3715 64.648 74.6675 65.128 74.0275 65.704C72.6835 67.112 71.4035 68.104 70.1875 68.68C69.0355 69.256 67.5955 69.192 65.8675 68.488C64.2675 67.784 63.2115 66.728 62.6995 65.32C62.2515 63.848 62.6675 62.248 63.9475 60.52C67.8515 55.336 72.8755 52.744 79.0195 52.744C82.9875 52.744 86.4435 53.512 89.3875 55.048C92.3315 56.584 94.6355 58.728 96.2995 61.48C97.9635 64.232 98.7955 67.432 98.7955 71.08C98.7955 74.344 97.9315 77.288 96.2035 79.912C94.4755 82.472 92.2995 84.36 89.6755 85.576C92.8115 86.792 95.3715 88.872 97.3555 91.816C99.3395 94.76 100.332 98.12 100.332 101.896C100.332 108.104 98.4115 113 94.5715 116.584C90.7955 120.168 85.6115 121.96 79.0195 121.96Z" fill="#F8D010"/>
<path d="M21.904 118.024L22.5694 117.277L22.5694 117.277L21.904 118.024ZM15.76 106.408L16.7356 106.188L16.7356 106.188L15.76 106.408ZM15.76 68.296L14.7844 68.0765L14.7844 68.0765L15.76 68.296ZM21.904 56.68L22.5694 57.4265L22.5694 57.4265L21.904 56.68ZM46.384 56.68L45.7105 57.4192L45.7105 57.4192L46.384 56.68ZM52.432 68.296L51.4563 68.5155L51.4591 68.5271L52.432 68.296ZM52.432 106.408L51.459 106.177L51.4564 106.188L52.432 106.408ZM46.384 118.024L45.7105 117.285L45.7105 117.285L46.384 118.024ZM39.28 109L38.5401 108.327L38.5385 108.329L39.28 109ZM41.968 101.8L40.9816 101.636L40.9803 101.643L40.9792 101.651L41.968 101.8ZM41.968 73L40.9788 73.1465L40.9801 73.1555L40.9816 73.1644L41.968 73ZM39.28 65.8L38.5232 66.4536L38.5391 66.472L38.5559 66.4897L39.28 65.8ZM29.008 65.8L29.7321 66.4897L29.7401 66.4813L29.7479 66.4727L29.008 65.8ZM26.224 73L25.2376 72.8356L25.2361 72.8445L25.2348 72.8535L26.224 73ZM26.224 101.8L25.2348 101.947L25.2363 101.957L25.2381 101.967L26.224 101.8ZM29.008 109L28.2681 109.673L28.2759 109.681L28.2839 109.69L29.008 109ZM34.192 120.96C29.1069 120.96 25.2768 119.691 22.5694 117.277L21.2386 118.771C24.4192 121.605 28.7811 122.96 34.192 122.96V120.96ZM22.5694 117.277C19.8255 114.832 17.8568 111.171 16.7356 106.188L14.7844 106.628C15.9672 111.885 18.0945 115.968 21.2386 118.771L22.5694 117.277ZM16.7356 106.188C15.6052 101.164 15.032 94.9074 15.032 87.4H13.032C13.032 94.9966 13.6108 101.412 14.7844 106.628L16.7356 106.188ZM15.032 87.4C15.032 79.8279 15.6053 73.5392 16.7356 68.5155L14.7844 68.0765C13.6107 73.2928 13.032 79.7401 13.032 87.4H15.032ZM16.7356 68.5155C17.8568 63.5327 19.8255 59.8721 22.5694 57.4265L21.2386 55.9335C18.0945 58.7359 15.9672 62.8193 14.7844 68.0765L16.7356 68.5155ZM22.5694 57.4265C25.2768 55.0134 29.1069 53.744 34.192 53.744V51.744C28.7811 51.744 24.4192 53.0986 21.2386 55.9335L22.5694 57.4265ZM34.192 53.744C39.2786 53.744 43.0706 55.014 45.7105 57.4192L47.0575 55.9408C43.9374 53.098 39.6014 51.744 34.192 51.744V53.744ZM45.7105 57.4192C48.3944 59.8645 50.3341 63.5275 51.4564 68.5155L53.4076 68.0765C52.2259 62.8245 50.1337 58.7435 47.0575 55.9408L45.7105 57.4192ZM51.4591 68.5271C52.6511 73.546 53.256 79.8305 53.256 87.4H55.256C55.256 79.7375 54.645 73.286 53.4049 68.0649L51.4591 68.5271ZM53.256 87.4C53.256 94.9048 52.6512 101.158 51.4591 106.177L53.4049 106.639C54.6448 101.418 55.256 94.9992 55.256 87.4H53.256ZM51.4564 106.188C50.3341 111.177 48.3944 114.84 45.7105 117.285L47.0575 118.763C50.1337 115.96 52.2259 111.879 53.4076 106.628L51.4564 106.188ZM45.7105 117.285C43.0706 119.69 39.2786 120.96 34.192 120.96V122.96C39.6014 122.96 43.9374 121.606 47.0575 118.763L45.7105 117.285ZM34.192 112.016C36.5889 112.016 38.5782 111.266 40.0215 109.671L38.5385 108.329C37.5498 109.422 36.1471 110.016 34.192 110.016V112.016ZM40.0199 109.673C41.5021 108.042 42.4359 105.4 42.9568 101.949L40.9792 101.651C40.4761 104.984 39.6179 107.142 38.5401 108.327L40.0199 109.673ZM42.9544 101.964C43.5437 98.4283 43.832 93.5646 43.832 87.4H41.832C41.832 93.5234 41.5443 98.2597 40.9816 101.636L42.9544 101.964ZM43.832 87.4C43.832 81.2354 43.5437 76.3717 42.9544 72.8356L40.9816 73.1644C41.5443 76.5403 41.832 81.2766 41.832 87.4H43.832ZM42.9572 72.8535C42.4378 69.3475 41.5053 66.6866 40.0041 65.1103L38.5559 66.4897C39.6147 67.6014 40.4742 69.7405 40.9788 73.1465L42.9572 72.8535ZM40.0368 65.1464C38.5979 63.4803 36.6041 62.688 34.192 62.688V64.688C36.1319 64.688 37.5301 65.3037 38.5232 66.4536L40.0368 65.1464ZM34.192 62.688C31.7789 62.688 29.7657 63.48 28.2681 65.1273L29.7479 66.4727C30.8104 65.304 32.2531 64.688 34.192 64.688V62.688ZM28.2839 65.1103C26.7893 66.6796 25.8216 69.3314 25.2376 72.8356L27.2104 73.1644C27.7784 69.7566 28.6667 67.6084 29.7321 66.4897L28.2839 65.1103ZM25.2348 72.8535C24.7122 76.3811 24.456 81.2378 24.456 87.4H26.456C26.456 81.2742 26.7118 76.5309 27.2132 73.1465L25.2348 72.8535ZM24.456 87.4C24.456 93.5622 24.7122 98.4189 25.2348 101.947L27.2132 101.653C26.7118 98.2691 26.456 93.5258 26.456 87.4H24.456ZM25.2381 101.967C25.8238 105.416 26.7923 108.049 28.2681 109.673L29.7479 108.327C28.6637 107.135 27.7762 104.968 27.2099 101.633L25.2381 101.967ZM28.2839 109.69C29.7853 111.266 31.7936 112.016 34.192 112.016V110.016C32.2384 110.016 30.7907 109.422 29.7321 108.31L28.2839 109.69ZM62.6995 113.896L61.863 114.444L61.8719 114.458L61.8812 114.471L62.6995 113.896ZM61.7395 109L60.814 108.621L60.814 108.621L61.7395 109ZM65.0995 106.024L64.7935 105.072L64.7829 105.075L64.7724 105.079L65.0995 106.024ZM69.5155 106.12L69.0299 106.994L69.0489 107.005L69.0683 107.014L69.5155 106.12ZM73.2595 109L72.5524 109.707L72.5877 109.742L72.6263 109.774L73.2595 109ZM75.5635 110.44L75.1444 111.348L75.1569 111.354L75.1696 111.359L75.5635 110.44ZM85.7395 108.904L85.1217 108.118L85.1147 108.123L85.1078 108.129L85.7395 108.904ZM85.8355 93.928L85.0798 94.5829L85.0915 94.5964L85.1036 94.6094L85.8355 93.928ZM84.7795 77.992L83.9901 77.3781L83.9829 77.3873L83.9759 77.3968L84.7795 77.992ZM84.2995 65.416L83.7303 66.2382L83.7412 66.2457L83.7523 66.253L84.2995 65.416ZM76.1395 64.264L75.6923 63.3696L75.6923 63.3696L76.1395 64.264ZM74.0275 65.704L73.3585 64.9607L73.3303 64.9861L73.3041 65.0135L74.0275 65.704ZM70.1875 68.68L69.7594 67.7763L69.7498 67.7808L69.7403 67.7856L70.1875 68.68ZM65.8675 68.488L65.4648 69.4033L65.4774 69.4089L65.4902 69.4141L65.8675 68.488ZM62.6995 65.32L61.7428 65.6112L61.7506 65.6367L61.7597 65.6617L62.6995 65.32ZM63.9475 60.52L63.1487 59.9184L63.1439 59.9248L63.9475 60.52ZM96.2995 61.48L95.4438 61.9974L95.4438 61.9974L96.2995 61.48ZM96.2035 79.912L97.0324 80.4715L97.0387 80.462L96.2035 79.912ZM89.6755 85.576L89.255 84.6687L87.1205 85.6578L89.314 86.5084L89.6755 85.576ZM97.3555 91.816L98.1848 91.2571L98.1848 91.2571L97.3555 91.816ZM94.5715 116.584L93.8892 115.853L93.8831 115.859L94.5715 116.584ZM79.0195 120.96C72.2101 120.96 67.0894 118.406 63.5178 113.321L61.8812 114.471C65.8616 120.138 71.6209 122.96 79.0195 122.96V120.96ZM63.536 113.348C62.4123 111.633 62.2642 110.358 62.665 109.379L60.814 108.621C60.0628 110.458 60.5547 112.447 61.863 114.444L63.536 113.348ZM62.665 109.379C63.1146 108.28 63.9869 107.467 65.4266 106.969L64.7724 105.079C62.8841 105.733 61.5164 106.904 60.814 108.621L62.665 109.379ZM65.4055 106.976C67.049 106.448 68.2079 106.538 69.0299 106.994L70.0011 105.246C68.5191 104.422 66.734 104.448 64.7935 105.072L65.4055 106.976ZM69.0683 107.014C70.0901 107.525 71.2518 108.406 72.5524 109.707L73.9666 108.293C72.5792 106.906 71.2449 105.867 69.9627 105.226L69.0683 107.014ZM72.6263 109.774C73.3962 110.404 74.2362 110.929 75.1444 111.348L75.9826 109.532C75.2268 109.183 74.5308 108.748 73.8927 108.226L72.6263 109.774ZM75.1696 111.359C76.2168 111.808 77.4125 112.016 78.7315 112.016V110.016C77.6185 110.016 76.7022 109.84 75.9574 109.521L75.1696 111.359ZM78.7315 112.016C81.8313 112.016 84.4146 111.273 86.3712 109.679L85.1078 108.129C83.6084 109.351 81.5197 110.016 78.7315 110.016V112.016ZM86.3573 109.69C88.5021 108.005 89.4275 105.13 89.4275 101.416H87.4275C87.4275 104.87 86.5609 106.987 85.1217 108.118L86.3573 109.69ZM89.4275 101.416C89.4275 98.0899 88.5062 95.329 86.5674 93.2466L85.1036 94.6094C86.6208 96.239 87.4275 98.4701 87.4275 101.416H89.4275ZM86.5912 93.2731C84.6825 91.0707 81.8699 90.048 78.3475 90.048V92.048C81.4811 92.048 83.6605 92.9453 85.0798 94.5829L86.5912 93.2731ZM78.3475 90.048C76.7416 90.048 75.7209 89.6472 75.0946 89.0209C74.4683 88.3946 74.0675 87.3739 74.0675 85.768H72.0675C72.0675 87.6821 72.5467 89.3014 73.6804 90.4351C74.8141 91.5688 76.4334 92.048 78.3475 92.048V90.048ZM74.0675 85.768C74.0675 84.1988 74.4657 83.2046 75.0881 82.5936C75.7138 81.9792 76.7371 81.584 78.3475 81.584V79.584C76.4379 79.584 74.8212 80.0528 73.6869 81.1664C72.5493 82.2834 72.0675 83.8812 72.0675 85.768H74.0675ZM78.3475 81.584C81.5374 81.584 84.0465 80.6616 85.5831 78.5872L83.9759 77.3968C82.9525 78.7784 81.1736 79.584 78.3475 79.584V81.584ZM85.5689 78.6059C87.0717 76.6738 87.7955 74.3031 87.7955 71.56H85.7955C85.7955 73.9369 85.1753 75.8542 83.9901 77.3781L85.5689 78.6059ZM87.7955 71.56C87.7955 68.3978 86.9183 65.9335 84.8468 64.579L83.7523 66.253C85.0087 67.0745 85.7955 68.7062 85.7955 71.56H87.7955ZM84.8687 64.5938C83.0354 63.3246 80.9803 62.688 78.7315 62.688V64.688C80.5787 64.688 82.2357 65.2034 83.7303 66.2382L84.8687 64.5938ZM78.7315 62.688C77.6348 62.688 76.6148 62.9083 75.6923 63.3696L76.5867 65.1584C77.2002 64.8517 77.9082 64.688 78.7315 64.688V62.688ZM75.6923 63.3696C74.8437 63.7939 74.0651 64.3248 73.3585 64.9607L74.6965 66.4473C75.2699 65.9312 75.8993 65.5021 76.5867 65.1584L75.6923 63.3696ZM73.3041 65.0135C72.0102 66.3691 70.8271 67.2705 69.7594 67.7763L70.6156 69.5837C71.9799 68.9375 73.3568 67.8549 74.7509 66.3945L73.3041 65.0135ZM69.7403 67.7856C68.9441 68.1836 67.8286 68.2071 66.2448 67.5619L65.4902 69.4141C67.3624 70.1768 69.1269 70.3283 70.6347 69.5744L69.7403 67.7856ZM66.2702 67.5727C64.8747 66.9587 64.0424 66.0867 63.6393 64.9783L61.7597 65.6617C62.3806 67.3693 63.6603 68.6093 65.4648 69.4033L66.2702 67.5727ZM63.6562 65.0288C63.3336 63.9689 63.5795 62.6968 64.7511 61.1152L63.1439 59.9248C61.7555 61.7992 61.1694 63.7271 61.7428 65.6112L63.6562 65.0288ZM64.7463 61.1216C68.4738 56.172 73.2096 53.744 79.0195 53.744V51.744C72.5414 51.744 67.2292 54.5 63.1487 59.9184L64.7463 61.1216ZM79.0195 53.744C82.8576 53.744 86.1491 54.4863 88.9249 55.9346L89.8501 54.1614C86.7379 52.5377 83.1174 51.744 79.0195 51.744V53.744ZM88.9249 55.9346C91.7121 57.3887 93.8777 59.4074 95.4438 61.9974L97.1552 60.9626C95.3933 58.0486 92.9509 55.7792 89.8501 54.1614L88.9249 55.9346ZM95.4438 61.9974C97.0012 64.5732 97.7955 67.5893 97.7955 71.08H99.7955C99.7955 67.2746 98.9258 63.8908 97.1552 60.9626L95.4438 61.9974ZM97.7955 71.08C97.7955 74.1565 96.9845 76.9079 95.3683 79.362L97.0387 80.462C98.8785 77.6681 99.7955 74.5315 99.7955 71.08H97.7955ZM95.3747 79.3525C93.7414 81.7722 91.7025 83.5345 89.255 84.6687L90.096 86.4833C92.8965 85.1855 95.2096 83.1718 97.0324 80.4715L95.3747 79.3525ZM89.314 86.5084C92.2487 87.6463 94.6497 89.5902 96.5262 92.3749L98.1848 91.2571C96.0933 88.1537 93.3743 85.9377 90.037 84.6436L89.314 86.5084ZM96.5262 92.3749C98.3917 95.143 99.3315 98.3058 99.3315 101.896H101.332C101.332 97.9342 100.287 94.377 98.1848 91.2571L96.5262 92.3749ZM99.3315 101.896C99.3315 107.882 97.4897 112.492 93.8892 115.853L95.2538 117.315C99.3333 113.508 101.332 108.326 101.332 101.896H99.3315ZM93.8831 115.859C90.3388 119.223 85.4265 120.96 79.0195 120.96V122.96C85.7965 122.96 91.2522 121.113 95.2599 117.309L93.8831 115.859Z" fill="#2E2D2C" mask="url(#path-1-outside-1_610_21)"/>
</svg>
